<svg viewBox="0 0 600 300" xmlns="http://www.w3.org/2000/svg" fill-rule="evenodd" clip-rule="evenodd" stroke-linejoin="round" stroke-miterlimit="1.414"><path fill="#c5c6c7" d="M233.095 145.663l46.844 92.638-58.179 29.42-46.844-92.638z"/><circle cx="128.501" cy="160.731" r="33.144" fill="#c5c6c7" transform="rotate(63.176 110.66 306.436) scale(.98446 .97806)"/><circle cx="128.501" cy="160.731" r="33.144" fill="#c5c6c7" transform="rotate(63.176 162.66 221.871) scale(.98446 .97806)"/><g><path fill="#c5c6c7" d="M99.434 127.24h103.808v65.194H99.434z"/><circle cx="128.501" cy="160.731" r="33.144" fill="#c5c6c7" transform="matrix(.98446 0 0 .97806 76.997 2.614)"/><circle cx="128.501" cy="160.731" r="33.144" fill="#c5c6c7" transform="matrix(.98446 0 0 .97806 -27.003 2.614)"/></g><g><path fill="#70a23a" d="M269.222 174.052l-46.844-92.638 58.179-29.42 46.844 92.638z"/><circle cx="128.501" cy="160.731" r="33.144" fill="#70a23a" transform="rotate(-116.824 161.026 73.464) scale(.98446 .97806)"/><circle cx="128.501" cy="160.731" r="33.144" fill="#70a23a" transform="rotate(-116.824 213.026 105.439) scale(.98446 .97806)"/><g><path fill="#70a23a" d="M402.883 192.475H299.075v-65.194h103.808z"/><circle cx="128.501" cy="160.731" r="33.144" fill="#70a23a" transform="matrix(-.98446 0 0 -.97806 425.32 317.1)"/><circle cx="128.501" cy="160.731" r="33.144" fill="#70a23a" transform="matrix(-.98446 0 0 -.97806 529.32 317.1)"/></g></g><g><path d="M382.679 252.358h-9.44v31.767h-7.107v-31.767h-9.44v-6.347h25.987v6.347zM397.066 254.23c3.526 0 6.167 1.234 7.921 3.703 1.754 2.468 2.631 6.325 2.631 11.57v1.681H392.78c.018 1.302.113 2.46.285 3.473.172 1.012.434 1.867.786 2.563.353.696.81 1.225 1.37 1.587.561.362 1.248.544 2.062.544 1.139 0 2.048-.49 2.726-1.466.678-.977 1.017-2.342 1.017-4.096h6.592c0 1.88-.257 3.512-.773 4.896-.515 1.384-1.234 2.528-2.156 3.432a8.75 8.75 0 0 1-3.283 2.02c-1.266.444-2.64.666-4.123.666-3.743 0-6.587-1.24-8.531-3.716-1.944-2.479-2.916-6.34-2.916-11.584 0-5.245.967-9.102 2.902-11.57 1.935-2.469 4.711-3.703 8.328-3.703zm0 5.453c-1.411 0-2.437.578-3.079 1.736-.642 1.157-1.017 2.803-1.126 4.937h7.759c0-2.134-.285-3.78-.855-4.937-.57-1.158-1.469-1.736-2.699-1.736zM426.454 254.23c1.555 0 2.966.226 4.232.678a8.036 8.036 0 0 1 3.228 2.103c.886.95 1.569 2.156 2.048 3.621.479 1.465.719 3.22.719 5.263h-6.836c0-2.062-.28-3.586-.841-4.57-.561-.987-1.411-1.48-2.55-1.48-1.411 0-2.41.733-2.997 2.198-.588 1.465-.882 3.598-.882 6.402v2.115c0 2.804.312 4.942.936 6.416.624 1.474 1.686 2.211 3.187 2.211 1.194 0 2.053-.507 2.577-1.519.525-1.013.787-2.532.787-4.558h6.619c0 2.044-.235 3.803-.706 5.277-.47 1.474-1.139 2.686-2.007 3.636a7.886 7.886 0 0 1-3.147 2.102c-1.229.452-2.604.678-4.123.678-1.899 0-3.544-.303-4.937-.91a8.32 8.32 0 0 1-3.459-2.793c-.913-1.257-1.586-2.849-2.021-4.775-.434-1.926-.651-4.2-.651-6.822 0-5.245.9-9.102 2.7-11.57 1.799-2.469 4.507-3.703 8.124-3.703zM452.288 258.001h.245c.325-.452.714-.904 1.166-1.357a8.27 8.27 0 0 1 1.546-1.207 8.795 8.795 0 0 1 1.953-.868 7.98 7.98 0 0 1 2.388-.339c1.121 0 2.156.167 3.106.502a6.042 6.042 0 0 1 2.454 1.614c.688.742 1.226 1.71 1.615 2.903.388 1.193.583 2.65.583 4.367v20.509h-6.646V265.46c0-1.88-.344-3.215-1.031-4.002-.687-.786-1.628-1.18-2.821-1.18-.651 0-1.257.15-1.818.448a4.432 4.432 0 0 0-1.451 1.248 6.101 6.101 0 0 0-.949 1.858 7.397 7.397 0 0 0-.34 2.28v18.012h-6.646v-40.176h6.646v14.052zM484.416 254.908h4.205v5.616h-4.205V276.8c0 1.591.778 2.387 2.333 2.387h1.872v4.938c-.235.09-.516.172-.841.244-.326.072-.669.145-1.031.217a11.278 11.278 0 0 1-2.116.217c-1.338 0-2.45-.226-3.336-.678-.886-.452-1.592-1.05-2.116-1.791a7.06 7.06 0 0 1-1.112-2.51 12.567 12.567 0 0 1-.326-2.862v-16.438h-2.957v-5.616h2.957l1.004-8.219h5.669v8.22zM507.294 254.23c3.888 0 6.804 1.234 8.748 3.703 1.944 2.468 2.916 6.325 2.916 11.57 0 5.244-.972 9.105-2.916 11.584-1.944 2.477-4.86 3.716-8.748 3.716-3.888 0-6.804-1.24-8.749-3.716-1.944-2.479-2.916-6.34-2.916-11.584 0-5.245.972-9.102 2.916-11.57 1.945-2.469 4.861-3.703 8.749-3.703zm0 5.615c-1.718 0-2.934.737-3.649 2.211-.714 1.474-1.071 3.604-1.071 6.39v2.114c0 2.804.357 4.942 1.071 6.416.715 1.474 1.931 2.211 3.649 2.211s2.934-.737 3.648-2.21c.715-1.475 1.072-3.613 1.072-6.417v-2.115c0-2.785-.357-4.915-1.072-6.389-.714-1.474-1.93-2.21-3.648-2.21zM542.08 254.23c1.121 0 2.157.167 3.106.502.95.335 1.768.873 2.455 1.614.687.742 1.225 1.71 1.614 2.903s.583 2.65.583 4.367v20.509h-6.646V265.46c0-1.88-.343-3.215-1.031-4.002-.687-.786-1.627-1.18-2.821-1.18a3.81 3.81 0 0 0-1.817.448 4.412 4.412 0 0 0-1.451 1.248 6.103 6.103 0 0 0-.95 1.858 7.427 7.427 0 0 0-.339 2.28v18.012h-6.646v-29.217h5.534l.678 3.608h.325c.38-.56.814-1.103 1.303-1.627a8.278 8.278 0 0 1 1.654-1.37 8.7 8.7 0 0 1 2.035-.936 7.948 7.948 0 0 1 2.414-.353zM566.45 284.125h-6.646v-29.217h6.646v29.217zm0-34.099h-6.646v-6.077h6.646v6.077zM586.452 254.23c1.555 0 2.966.226 4.232.678a8.036 8.036 0 0 1 3.228 2.103c.886.95 1.569 2.156 2.048 3.621.479 1.465.719 3.22.719 5.263h-6.836c0-2.062-.281-3.586-.841-4.57-.561-.987-1.411-1.48-2.55-1.48-1.411 0-2.41.733-2.998 2.198-.587 1.465-.881 3.598-.881 6.402v2.115c0 2.804.312 4.942.936 6.416.624 1.474 1.686 2.211 3.187 2.211 1.194 0 2.053-.507 2.577-1.519.524-1.013.787-2.532.787-4.558h6.619c0 2.044-.235 3.803-.706 5.277-.47 1.474-1.139 2.686-2.007 3.636a7.886 7.886 0 0 1-3.147 2.102c-1.23.452-2.604.678-4.123.678-1.899 0-3.545-.303-4.937-.91a8.313 8.313 0 0 1-3.459-2.793c-.913-1.257-1.587-2.849-2.021-4.775-.434-1.926-.651-4.2-.651-6.822 0-5.245.9-9.102 2.699-11.57 1.8-2.469 4.508-3.703 8.125-3.703zM636.087 245.333c1.917 0 3.753.303 5.507.908 1.754.606 3.3 1.501 4.639 2.686 1.338 1.184 2.405 2.65 3.201 4.394.795 1.746 1.193 3.757 1.193 6.036h-7.27c0-1.302-.199-2.44-.597-3.418-.397-.976-.935-1.799-1.614-2.468a6.565 6.565 0 0 0-2.387-1.506 8.421 8.421 0 0 0-2.916-.502c-1.483 0-2.767.281-3.852.841a7.167 7.167 0 0 0-2.685 2.414c-.706 1.05-1.226 2.33-1.56 3.84-.335 1.51-.502 3.213-.502 5.112v2.794c0 1.935.172 3.662.515 5.182.344 1.52.873 2.798 1.587 3.838.715 1.04 1.614 1.831 2.699 2.374 1.085.542 2.369.813 3.852.813 1.085 0 2.085-.217 2.998-.65a6.874 6.874 0 0 0 2.36-1.845c.66-.796 1.175-1.759 1.546-2.889s.556-2.392.556-3.784h-8.572V263.4h15.842v20.726h-4.611l-1.221-4.232c-1.23 1.628-2.726 2.853-4.49 3.676-1.763.823-3.657 1.234-5.683 1.234-2.332 0-4.412-.393-6.239-1.18-1.826-.787-3.363-1.99-4.611-3.608-1.248-1.619-2.202-3.668-2.862-6.145-.66-2.478-.99-5.407-.99-8.789 0-3.364.361-6.285 1.085-8.762.723-2.478 1.772-4.53 3.146-6.158a12.636 12.636 0 0 1 5.073-3.635c2.008-.796 4.295-1.193 6.863-1.193zM671.037 254.23c.416 0 .796.027 1.14.082.343.054.642.108.895.162.289.073.533.145.732.217v6.43h-2.387c-.723 0-1.415.108-2.075.325a4.204 4.204 0 0 0-1.736 1.1c-.498.514-.895 1.201-1.194 2.06-.298.86-.447 1.94-.447 3.242v16.277h-6.646v-29.217h5.533l.787 4.26h.326c.199-.616.434-1.217.705-1.805a6.437 6.437 0 0 1 1.017-1.573 5.083 5.083 0 0 1 1.424-1.126c.543-.289 1.185-.434 1.926-.434zM690.688 254.23c3.888 0 6.804 1.234 8.748 3.703 1.944 2.468 2.916 6.325 2.916 11.57 0 5.244-.972 9.105-2.916 11.584-1.944 2.477-4.86 3.716-8.748 3.716-3.888 0-6.804-1.24-8.748-3.716-1.945-2.479-2.917-6.34-2.917-11.584 0-5.245.972-9.102 2.917-11.57 1.944-2.469 4.86-3.703 8.748-3.703zm0 5.615c-1.718 0-2.934.737-3.649 2.211-.714 1.474-1.071 3.604-1.071 6.39v2.114c0 2.804.357 4.942 1.071 6.416.715 1.474 1.931 2.211 3.649 2.211s2.934-.737 3.648-2.21c.715-1.475 1.072-3.613 1.072-6.417v-2.115c0-2.785-.357-4.915-1.072-6.389-.714-1.474-1.93-2.21-3.648-2.21zM732.121 284.125h-5.534l-.678-3.608h-.325c-.38.579-.814 1.126-1.302 1.64a8.564 8.564 0 0 1-3.69 2.293 7.948 7.948 0 0 1-2.414.353c-1.121 0-2.156-.167-3.106-.502a6.025 6.025 0 0 1-2.455-1.614c-.687-.741-1.225-1.713-1.614-2.916-.389-1.204-.583-2.664-.583-4.382v-20.48h6.646v18.663c0 1.88.33 3.21.99 3.987.66.778 1.614 1.167 2.862 1.167a3.83 3.83 0 0 0 1.804-.434 4.558 4.558 0 0 0 1.438-1.194c.407-.506.728-1.112.963-1.817a7.17 7.17 0 0 0 .352-2.279v-18.094h6.646v29.217zM754.132 254.23c1.447 0 2.749.303 3.906.91 1.158.605 2.143 1.532 2.957 2.78.814 1.247 1.438 2.834 1.872 4.76.434 1.926.651 4.218.651 6.877 0 2.658-.231 4.946-.692 6.863-.461 1.917-1.094 3.5-1.899 4.748-.805 1.248-1.759 2.166-2.862 2.753-1.103.588-2.305.882-3.608.882-1.464 0-2.78-.321-3.946-.963-1.167-.642-2.012-1.551-2.537-2.726h-.298v12.614h-6.646v-38.82h5.534l.678 3.608h.271c.741-1.428 1.682-2.5 2.821-3.214 1.14-.715 2.405-1.072 3.798-1.072zm-2.007 6.05c-1.61 0-2.754.705-3.432 2.115-.678 1.411-1.017 3.427-1.017 6.05v2.007c0 2.64.339 4.68 1.017 6.117.678 1.438 1.822 2.157 3.432 2.157 1.609 0 2.753-.7 3.431-2.103.678-1.4 1.017-3.422 1.017-6.063v-2.115c0-2.623-.339-4.639-1.017-6.05-.678-1.41-1.822-2.116-3.431-2.116z" fill="#d8d8d8" fill-rule="nonzero"/></g></svg>