<?xml version="1.0" encoding="UTF-8" standalone="no"?>
<!DOCTYPE svg PUBLIC "-//W3C//DTD SVG 1.1//EN" "http://www.w3.org/Graphics/SVG/1.1/DTD/svg11.dtd">
<svg width="100%" height="100%" viewBox="0 0 600 300" version="1.1" xmlns="http://www.w3.org/2000/svg" xmlns:xlink="http://www.w3.org/1999/xlink" xml:space="preserve" style="fill-rule:evenodd;clip-rule:evenodd;stroke-linejoin:round;stroke-miterlimit:1.41421;">
    <g>
        <g transform="matrix(0.451257,0.892394,-0.892394,0.451257,301.773,-0.488954)">
            <rect x="99.434" y="127.24" width="103.808" height="65.194" style="fill:rgb(197,198,199);"/>
            <g transform="matrix(0.984457,0,0,0.978064,76.9972,2.61425)">
                <circle cx="128.501" cy="160.731" r="33.144" style="fill:rgb(197,198,199);"/>
            </g>
            <g transform="matrix(0.984457,0,0,0.978064,-27.0028,2.61425)">
                <circle cx="128.501" cy="160.731" r="33.144" style="fill:rgb(197,198,199);"/>
            </g>
        </g>
        <g>
            <rect x="99.434" y="127.24" width="103.808" height="65.194" style="fill:rgb(197,198,199);"/>
            <g transform="matrix(0.984457,0,0,0.978064,76.9972,2.61425)">
                <circle cx="128.501" cy="160.731" r="33.144" style="fill:rgb(197,198,199);"/>
            </g>
            <g transform="matrix(0.984457,0,0,0.978064,-27.0028,2.61425)">
                <circle cx="128.501" cy="160.731" r="33.144" style="fill:rgb(197,198,199);"/>
            </g>
        </g>
    </g>
    <g transform="matrix(-1,-1.22465e-16,1.22465e-16,-1,502.317,319.715)">
        <g transform="matrix(0.451257,0.892394,-0.892394,0.451257,301.773,-0.488954)">
            <rect x="99.434" y="127.24" width="103.808" height="65.194" style="fill:rgb(112,162,58);"/>
            <g transform="matrix(0.984457,0,0,0.978064,76.9972,2.61425)">
                <circle cx="128.501" cy="160.731" r="33.144" style="fill:rgb(112,162,58);"/>
            </g>
            <g transform="matrix(0.984457,0,0,0.978064,-27.0028,2.61425)">
                <circle cx="128.501" cy="160.731" r="33.144" style="fill:rgb(112,162,58);"/>
            </g>
        </g>
        <g>
            <rect x="99.434" y="127.24" width="103.808" height="65.194" style="fill:rgb(112,162,58);"/>
            <g transform="matrix(0.984457,0,0,0.978064,76.9972,2.61425)">
                <circle cx="128.501" cy="160.731" r="33.144" style="fill:rgb(112,162,58);"/>
            </g>
            <g transform="matrix(0.984457,0,0,0.978064,-27.0028,2.61425)">
                <circle cx="128.501" cy="160.731" r="33.144" style="fill:rgb(112,162,58);"/>
            </g>
        </g>
    </g>
    <g transform="matrix(1,0,0,0.709553,5,79.9871)">
        <g transform="matrix(1,0,0,1.40934,0,-94.5891)">
            <path d="M377.679,239.487L368.239,239.487L368.239,271.253L361.132,271.253L361.132,239.487L351.692,239.487L351.692,233.14L377.679,233.14L377.679,239.487Z" style="fill:rgb(216,216,216);fill-rule:nonzero;"/>
        </g>
        <g transform="matrix(1,0,0,1.40934,0,-94.5891)">
            <path d="M392.066,241.359C395.592,241.359 398.233,242.593 399.987,245.062C401.741,247.53 402.618,251.387 402.618,256.632L402.618,258.313L387.78,258.313C387.798,259.615 387.893,260.773 388.065,261.786C388.237,262.798 388.499,263.653 388.851,264.349C389.204,265.045 389.661,265.574 390.221,265.936C390.782,266.298 391.469,266.479 392.283,266.479C393.422,266.479 394.331,265.99 395.009,265.014C395.687,264.037 396.026,262.672 396.026,260.918L402.618,260.918C402.618,262.798 402.361,264.43 401.845,265.814C401.33,267.197 400.611,268.341 399.689,269.245C398.766,270.15 397.672,270.823 396.406,271.266C395.14,271.709 393.766,271.931 392.283,271.931C388.54,271.931 385.696,270.692 383.752,268.215C381.808,265.737 380.836,261.876 380.836,256.632C380.836,251.387 381.803,247.53 383.738,245.062C385.673,242.593 388.449,241.359 392.066,241.359ZM392.066,246.812C390.655,246.812 389.629,247.39 388.987,248.548C388.345,249.705 387.97,251.351 387.861,253.485L395.62,253.485C395.62,251.351 395.335,249.705 394.765,248.548C394.195,247.39 393.296,246.812 392.066,246.812Z" style="fill:rgb(216,216,216);fill-rule:nonzero;"/>
        </g>
        <g transform="matrix(1,0,0,1.40934,0,-94.5891)">
            <path d="M421.454,241.359C423.009,241.359 424.42,241.585 425.686,242.037C426.952,242.489 428.028,243.19 428.914,244.14C429.8,245.089 430.483,246.296 430.962,247.761C431.441,249.226 431.681,250.98 431.681,253.024L424.845,253.024C424.845,250.962 424.565,249.438 424.004,248.453C423.443,247.467 422.593,246.974 421.454,246.974C420.043,246.974 419.044,247.707 418.457,249.172C417.869,250.637 417.575,252.77 417.575,255.574L417.575,257.689C417.575,260.493 417.887,262.631 418.511,264.105C419.135,265.579 420.197,266.316 421.698,266.316C422.892,266.316 423.751,265.809 424.275,264.797C424.8,263.784 425.062,262.265 425.062,260.239L431.681,260.239C431.681,262.283 431.446,264.042 430.975,265.516C430.505,266.989 429.836,268.201 428.968,269.151C428.1,270.1 427.051,270.801 425.821,271.253C424.592,271.705 423.217,271.931 421.698,271.931C419.799,271.931 418.154,271.628 416.761,271.022C415.369,270.416 414.216,269.485 413.302,268.228C412.389,266.971 411.716,265.38 411.281,263.454C410.847,261.528 410.63,259.254 410.63,256.632C410.63,251.387 411.53,247.53 413.33,245.062C415.129,242.593 417.837,241.359 421.454,241.359Z" style="fill:rgb(216,216,216);fill-rule:nonzero;"/>
        </g>
        <g transform="matrix(1,0,0,1.40934,0,-94.5891)">
            <path d="M447.288,245.13L447.533,245.13C447.858,244.678 448.247,244.226 448.699,243.773C449.151,243.321 449.667,242.919 450.245,242.566C450.824,242.214 451.475,241.924 452.198,241.698C452.922,241.472 453.717,241.359 454.586,241.359C455.707,241.359 456.742,241.526 457.692,241.861C458.641,242.196 459.459,242.734 460.146,243.475C460.834,244.217 461.372,245.184 461.761,246.378C462.149,247.571 462.344,249.027 462.344,250.745L462.344,271.253L455.698,271.253L455.698,252.59C455.698,250.709 455.354,249.375 454.667,248.588C453.98,247.802 453.039,247.408 451.846,247.408C451.195,247.408 450.589,247.558 450.028,247.856C449.468,248.154 448.984,248.57 448.577,249.104C448.17,249.637 447.854,250.257 447.628,250.962C447.401,251.667 447.288,252.427 447.288,253.241L447.288,271.253L440.642,271.253L440.642,231.078L447.288,231.078L447.288,245.13Z" style="fill:rgb(216,216,216);fill-rule:nonzero;"/>
        </g>
        <g transform="matrix(1,0,0,1.40934,0,-94.5891)">
            <path d="M479.416,242.037L483.621,242.037L483.621,247.653L479.416,247.653L479.416,263.929C479.416,265.52 480.194,266.316 481.749,266.316L483.621,266.316L483.621,271.253C483.386,271.343 483.105,271.425 482.78,271.497C482.454,271.569 482.111,271.642 481.749,271.714C481.387,271.786 481.026,271.841 480.664,271.877C480.302,271.913 479.959,271.931 479.633,271.931C478.295,271.931 477.183,271.705 476.297,271.253C475.411,270.801 474.705,270.204 474.181,269.462C473.656,268.721 473.286,267.885 473.069,266.953C472.852,266.022 472.743,265.068 472.743,264.091L472.743,247.653L469.786,247.653L469.786,242.037L472.743,242.037L473.747,233.818L479.416,233.818L479.416,242.037Z" style="fill:rgb(216,216,216);fill-rule:nonzero;"/>
        </g>
        <g transform="matrix(1,0,0,1.40934,0,-94.5891)">
            <path d="M502.294,241.359C506.182,241.359 509.098,242.593 511.042,245.062C512.986,247.53 513.958,251.387 513.958,256.632C513.958,261.876 512.986,265.737 511.042,268.215C509.098,270.692 506.182,271.931 502.294,271.931C498.406,271.931 495.49,270.692 493.545,268.215C491.601,265.737 490.629,261.876 490.629,256.632C490.629,251.387 491.601,247.53 493.545,245.062C495.49,242.593 498.406,241.359 502.294,241.359ZM502.294,246.974C500.576,246.974 499.36,247.711 498.645,249.185C497.931,250.659 497.574,252.789 497.574,255.574L497.574,257.689C497.574,260.493 497.931,262.631 498.645,264.105C499.36,265.579 500.576,266.316 502.294,266.316C504.012,266.316 505.228,265.579 505.942,264.105C506.657,262.631 507.014,260.493 507.014,257.689L507.014,255.574C507.014,252.789 506.657,250.659 505.942,249.185C505.228,247.711 504.012,246.974 502.294,246.974Z" style="fill:rgb(216,216,216);fill-rule:nonzero;"/>
        </g>
        <g transform="matrix(1,0,0,1.40934,0,-94.5891)">
            <path d="M537.08,241.359C538.201,241.359 539.237,241.526 540.186,241.861C541.136,242.196 541.954,242.734 542.641,243.475C543.328,244.217 543.866,245.184 544.255,246.378C544.644,247.571 544.838,249.027 544.838,250.745L544.838,271.253L538.192,271.253L538.192,252.59C538.192,250.709 537.849,249.375 537.161,248.588C536.474,247.802 535.534,247.408 534.34,247.408C533.689,247.408 533.083,247.558 532.523,247.856C531.962,248.154 531.478,248.57 531.072,249.104C530.665,249.637 530.348,250.257 530.122,250.962C529.896,251.667 529.783,252.427 529.783,253.241L529.783,271.253L523.137,271.253L523.137,242.037L528.671,242.037L529.349,245.645L529.674,245.645C530.054,245.085 530.488,244.542 530.977,244.018C531.465,243.493 532.016,243.036 532.631,242.648C533.246,242.259 533.924,241.947 534.666,241.712C535.407,241.477 536.212,241.359 537.08,241.359Z" style="fill:rgb(216,216,216);fill-rule:nonzero;"/>
        </g>
        <g transform="matrix(1,0,0,1.40934,0,-94.5891)">
            <path d="M561.45,271.253L554.804,271.253L554.804,242.037L561.45,242.037L561.45,271.253ZM561.45,237.155L554.804,237.155L554.804,231.078L561.45,231.078L561.45,237.155Z" style="fill:rgb(216,216,216);fill-rule:nonzero;"/>
        </g>
        <g transform="matrix(1,0,0,1.40934,0,-94.5891)">
            <path d="M581.452,241.359C583.007,241.359 584.418,241.585 585.684,242.037C586.95,242.489 588.026,243.19 588.912,244.14C589.798,245.089 590.481,246.296 590.96,247.761C591.439,249.226 591.679,250.98 591.679,253.024L584.843,253.024C584.843,250.962 584.562,249.438 584.002,248.453C583.441,247.467 582.591,246.974 581.452,246.974C580.041,246.974 579.042,247.707 578.454,249.172C577.867,250.637 577.573,252.77 577.573,255.574L577.573,257.689C577.573,260.493 577.885,262.631 578.509,264.105C579.133,265.579 580.195,266.316 581.696,266.316C582.89,266.316 583.749,265.809 584.273,264.797C584.797,263.784 585.06,262.265 585.06,260.239L591.679,260.239C591.679,262.283 591.444,264.042 590.973,265.516C590.503,266.989 589.834,268.201 588.966,269.151C588.098,270.1 587.049,270.801 585.819,271.253C584.589,271.705 583.215,271.931 581.696,271.931C579.797,271.931 578.151,271.628 576.759,271.022C575.366,270.416 574.214,269.485 573.3,268.228C572.387,266.971 571.713,265.38 571.279,263.454C570.845,261.528 570.628,259.254 570.628,256.632C570.628,251.387 571.528,247.53 573.327,245.062C575.127,242.593 577.835,241.359 581.452,241.359Z" style="fill:rgb(216,216,216);fill-rule:nonzero;"/>
        </g>
        <g transform="matrix(1,0,0,1.40934,0,-94.5891)">
            <path d="M631.087,232.462C633.004,232.462 634.84,232.765 636.594,233.37C638.348,233.976 639.894,234.871 641.233,236.056C642.571,237.24 643.638,238.705 644.434,240.45C645.229,242.196 645.627,244.207 645.627,246.486L638.357,246.486C638.357,245.184 638.158,244.045 637.76,243.068C637.363,242.092 636.825,241.269 636.146,240.6C635.468,239.93 634.673,239.429 633.759,239.094C632.846,238.76 631.874,238.592 630.843,238.592C629.36,238.592 628.076,238.873 626.991,239.433C625.906,239.994 625.011,240.799 624.306,241.847C623.6,242.896 623.08,244.176 622.746,245.686C622.411,247.196 622.244,248.9 622.244,250.799L622.244,253.593C622.244,255.528 622.416,257.255 622.759,258.775C623.103,260.294 623.632,261.573 624.346,262.613C625.061,263.653 625.96,264.444 627.045,264.987C628.13,265.529 629.414,265.8 630.897,265.8C631.982,265.8 632.982,265.583 633.895,265.149C634.808,264.715 635.595,264.1 636.255,263.305C636.915,262.509 637.43,261.546 637.801,260.416C638.172,259.285 638.357,258.024 638.357,256.632L629.785,256.632L629.785,250.528L645.627,250.528L645.627,271.253L641.016,271.253L639.795,267.021C638.565,268.649 637.069,269.874 635.305,270.697C633.542,271.52 631.648,271.931 629.622,271.931C627.29,271.931 625.21,271.538 623.383,270.751C621.557,269.964 620.02,268.762 618.772,267.143C617.524,265.525 616.57,263.476 615.91,260.999C615.25,258.521 614.92,255.592 614.92,252.21C614.92,248.846 615.281,245.925 616.005,243.448C616.728,240.97 617.777,238.918 619.151,237.29C620.526,235.663 622.217,234.451 624.224,233.655C626.232,232.859 628.519,232.462 631.087,232.462Z" style="fill:rgb(216,216,216);fill-rule:nonzero;"/>
        </g>
        <g transform="matrix(1,0,0,1.40934,0,-94.5891)">
            <path d="M666.037,241.359C666.453,241.359 666.833,241.386 667.177,241.441C667.52,241.495 667.819,241.549 668.072,241.603C668.361,241.676 668.605,241.748 668.804,241.82L668.804,248.249L666.417,248.249C665.694,248.249 665.002,248.358 664.342,248.575C663.682,248.792 663.103,249.158 662.606,249.674C662.108,250.189 661.711,250.876 661.412,251.735C661.114,252.594 660.965,253.675 660.965,254.977L660.965,271.253L654.319,271.253L654.319,242.037L659.852,242.037L660.639,246.296L660.965,246.296C661.164,245.681 661.399,245.08 661.67,244.492C661.941,243.905 662.28,243.38 662.687,242.919C663.094,242.458 663.569,242.083 664.111,241.793C664.654,241.504 665.296,241.359 666.037,241.359Z" style="fill:rgb(216,216,216);fill-rule:nonzero;"/>
        </g>
        <g transform="matrix(1,0,0,1.40934,0,-94.5891)">
            <path d="M685.688,241.359C689.576,241.359 692.492,242.593 694.436,245.062C696.38,247.53 697.352,251.387 697.352,256.632C697.352,261.876 696.38,265.737 694.436,268.215C692.492,270.692 689.576,271.931 685.688,271.931C681.8,271.931 678.884,270.692 676.94,268.215C674.995,265.737 674.023,261.876 674.023,256.632C674.023,251.387 674.995,247.53 676.94,245.062C678.884,242.593 681.8,241.359 685.688,241.359ZM685.688,246.974C683.97,246.974 682.754,247.711 682.039,249.185C681.325,250.659 680.968,252.789 680.968,255.574L680.968,257.689C680.968,260.493 681.325,262.631 682.039,264.105C682.754,265.579 683.97,266.316 685.688,266.316C687.406,266.316 688.622,265.579 689.336,264.105C690.051,262.631 690.408,260.493 690.408,257.689L690.408,255.574C690.408,252.789 690.051,250.659 689.336,249.185C688.622,247.711 687.406,246.974 685.688,246.974Z" style="fill:rgb(216,216,216);fill-rule:nonzero;"/>
        </g>
        <g transform="matrix(1,0,0,1.40934,0,-94.5891)">
            <path d="M727.121,271.253L721.587,271.253L720.909,267.645L720.584,267.645C720.204,268.224 719.77,268.771 719.282,269.286C718.793,269.802 718.242,270.254 717.627,270.642C717.012,271.031 716.334,271.343 715.592,271.578C714.851,271.813 714.046,271.931 713.178,271.931C712.057,271.931 711.022,271.764 710.072,271.429C709.123,271.095 708.304,270.557 707.617,269.815C706.93,269.074 706.392,268.102 706.003,266.899C705.614,265.696 705.42,264.236 705.42,262.518L705.42,242.037L712.066,242.037L712.066,260.701C712.066,262.581 712.396,263.911 713.056,264.688C713.716,265.466 714.67,265.855 715.918,265.855C716.569,265.855 717.17,265.71 717.722,265.421C718.273,265.131 718.753,264.733 719.16,264.227C719.567,263.721 719.888,263.115 720.123,262.41C720.358,261.704 720.475,260.945 720.475,260.131L720.475,242.037L727.121,242.037L727.121,271.253Z" style="fill:rgb(216,216,216);fill-rule:nonzero;"/>
        </g>
        <g transform="matrix(1,0,0,1.40934,0,-94.5891)">
            <path d="M749.132,241.359C750.579,241.359 751.881,241.662 753.038,242.268C754.196,242.874 755.181,243.801 755.995,245.048C756.809,246.296 757.433,247.883 757.867,249.809C758.301,251.735 758.518,254.027 758.518,256.686C758.518,259.344 758.287,261.632 757.826,263.549C757.365,265.466 756.732,267.048 755.927,268.296C755.122,269.544 754.168,270.462 753.065,271.049C751.962,271.637 750.76,271.931 749.457,271.931C747.993,271.931 746.677,271.61 745.511,270.968C744.344,270.326 743.499,269.417 742.974,268.242L742.676,268.242L742.676,280.856L736.03,280.856L736.03,242.037L741.564,242.037L742.242,245.645L742.513,245.645C743.254,244.217 744.195,243.145 745.334,242.431C746.474,241.716 747.739,241.359 749.132,241.359ZM747.125,247.408C745.515,247.408 744.371,248.114 743.693,249.524C743.015,250.935 742.676,252.951 742.676,255.574L742.676,257.581C742.676,260.221 743.015,262.26 743.693,263.698C744.371,265.136 745.515,265.855 747.125,265.855C748.734,265.855 749.878,265.154 750.556,263.752C751.234,262.351 751.573,260.33 751.573,257.689L751.573,255.574C751.573,252.951 751.234,250.935 750.556,249.524C749.878,248.114 748.734,247.408 747.125,247.408Z" style="fill:rgb(216,216,216);fill-rule:nonzero;"/>
        </g>
    </g>
</svg>
